<svg width="26" height="22" viewBox="0 0 26 22" fill="none" xmlns="http://www.w3.org/2000/svg">
<path d="M0.724548 21.334C0.724548 21.5512 0.900827 21.7277 1.1183 21.7277H25.0963C25.3135 21.7277 25.4901 21.5514 25.4901 21.334C25.4901 21.1168 25.3138 20.9402 25.0963 20.9402H24.3685V9.63516C24.3685 9.41797 24.1922 9.24141 23.9747 9.24141L17.546 9.24168V1.09132C17.546 0.953484 17.4741 0.82608 17.3565 0.754684C17.2393 0.683021 17.0927 0.678628 16.9708 0.742054L9.66179 4.54745C9.53136 4.61528 9.45009 4.74982 9.45009 4.89672V12.0159H2.3766C2.15941 12.0159 1.98285 12.1922 1.98285 12.4097V20.9403H1.11742C0.90023 20.94 0.724548 21.1165 0.724548 21.334ZM17.5461 15.2051H23.5813V20.9406L17.5461 20.9403V15.2051ZM17.5461 12.469H23.5813V14.4179L17.5461 14.4177V12.469ZM17.5461 10.0288H23.5813V11.682H17.5461V10.0288ZM10.2372 5.13581L16.7584 1.74035V20.9399H10.2372V5.13581ZM4.71679 17.7954C4.71679 16.9783 5.36424 16.3132 6.16023 16.3132C6.95623 16.3132 7.60396 16.978 7.60396 17.7954V20.9404H4.71679V17.7954ZM2.77033 12.8033H9.44997V20.9403H8.39144V17.7953C8.39144 16.544 7.39091 15.5259 6.16023 15.5259C4.93012 15.5259 3.92959 16.5437 3.92959 17.7953V20.9403H2.77033V12.8033Z" fill="#103E13"/>
</svg>
